<?xml version="1.0" encoding="utf-8"?>
<!-- Generator: Adobe Illustrator 28.0.0, SVG Export Plug-In . SVG Version: 6.00 Build 0)  -->
<svg version="1.1" id="_Слой_1" xmlns="http://www.w3.org/2000/svg" xmlns:xlink="http://www.w3.org/1999/xlink" x="0px"
	 y="0px" viewBox="0 0 560 560" style="enable-background:new 0 0 560 560;" xml:space="preserve">
<style type="text/css">
	.st0{fill:#1A1A1A;}
	.st1{fill-rule:evenodd;clip-rule:evenodd;fill:#FFFFFF;}
</style>
<path class="st0" d="M128.3,0h303.3C502.5,0,560,57.5,560,128.3v303.3c0,70.9-57.5,128.3-128.3,128.3H128.3
	C57.5,560,0,502.5,0,431.7V128.3C0,57.5,57.5,0,128.3,0z"/>
<circle class="st0" cx="280" cy="280" r="40.5"/>
<path class="st1" d="M414.3,147.5c-17.4-8.1-37-12.1-55.4-12.1s-38,4-55.4,12.1c-5.1,2.4-14.1,6.9-20.4,13.3c-1.7,1.8-4.6,1.8-6.4,0
	c-6.3-6.5-15.3-11-20.4-13.3c-17.4-8.1-37-12.1-55.4-12.1c-18.4,0-38,4-55.4,12.1c-8.3,3.9-27.2,13.4-27.2,28c0,1,0,1.9,0,2.9v31.4
	c0,4.9,4,8.9,8.9,8.9h101.9c22.2,0.4,22.3,33.5,0,33.9H127.4c-4.9,0-8.9,4-8.9,8.9v33c0,4.9,4,8.9,8.9,8.9h101.9
	c22.2,0.4,22.3,33.5,0,33.9H127.4c-4.9,0-8.9,4-8.9,8.9v72.1c0,5.8,3.5,6.3,7.9,6.3h0.1c3.6,0,7.9-4.8,8.3-5.3
	c1.1-1.5,3.1-3.1,3.9-3.8c4.4-3.3,9.7-5.6,14.5-7.3c15.1-5.4,32.3-7.2,47.9-7.2s32.7,1.8,47.9,7.2c4.8,1.7,10.1,4,14.5,7.3
	c1,0.8,8.4,4.1,12.2,4.1h0.1c0.9,0,7.7,0,8.6,0h0.1c3.6,0,11.4-3.5,12.2-4.1c4.4-3.3,9.7-5.6,14.5-7.3c15.1-5.4,32.3-7.2,47.9-7.2
	c15.6,0,32.7,1.8,47.9,7.2c4.8,1.7,10.1,4,14.5,7.3c0.8,0.6,2.8,2.3,3.9,3.8c0.4,0.5,4.7,5.3,8.3,5.3h0.1c4.3,0,7.9-0.5,7.9-6.3
	v-240c0-1,0-1.9,0-2.9C441.5,160.8,422.6,151.3,414.3,147.5z"/>
</svg>
