<?xml version="1.0" encoding="utf-8"?>
<!-- Generator: Adobe Illustrator 28.0.0, SVG Export Plug-In . SVG Version: 6.00 Build 0)  -->
<svg version="1.1" id="Слой_1" xmlns="http://www.w3.org/2000/svg" xmlns:xlink="http://www.w3.org/1999/xlink" x="0px" y="0px"
	 viewBox="0 0 1024 1024" style="enable-background:new 0 0 1024 1024;" xml:space="preserve">
<style type="text/css">
	.st0{display:none;fill-rule:evenodd;clip-rule:evenodd;fill:#43302B;}
	.st1{fill-rule:evenodd;clip-rule:evenodd;fill:#2B170F;}
</style>
<path class="st0" d="M699.53,839H323.47C246.99,839,185,777.01,185,700.53V324.47C185,247.99,246.99,186,323.47,186h376.06
	C776.01,186,838,247.99,838,324.47v376.06C838,777.01,776.01,839,699.53,839z"/>
<path class="st1" d="M741.51,284.8c-29.85-13.91-63.29-20.72-94.83-20.72c-31.54,0-64.99,6.81-94.82,20.72
	c-8.7,4.06-24.22,11.73-34.92,22.84c-2.97,3.08-7.9,3.08-10.87,0c-10.7-11.11-26.21-18.79-34.89-22.84
	c-29.84-13.91-63.29-20.72-94.82-20.72c-31.54,0-64.99,6.81-94.82,20.72c-14.19,6.62-46.49,22.86-46.49,47.89
	c0,1.66,0.01,3.31,0.01,4.97l0,53.75c0,8.43,6.83,15.26,15.26,15.26h174.51c38.03,0.61,38.24,57.38,0,58.04H250.32
	c-8.43,0-15.26,6.83-15.26,15.26l0,56.55c0,8.43,6.83,15.26,15.26,15.26h174.51c38.03,0.61,38.24,57.38,0,58.04H250.32
	c-8.43,0-15.26,6.83-15.26,15.26l0,123.37c0,9.95,6.05,10.81,13.46,10.81h0.24c6.17,0,13.59-8.16,14.23-9.05
	c1.83-2.5,5.29-5.39,6.66-6.43c7.44-5.63,16.54-9.56,24.77-12.48c25.92-9.21,55.22-12.33,81.95-12.33
	c26.74,0,56.03,3.12,81.95,12.33c8.23,2.92,17.31,6.86,24.76,12.48c1.76,1.33,14.41,7.01,20.9,7.01h0.24c1.5,0,13.15,0,14.65,0h0.23
	c6.17,0,19.52-5.97,20.89-7.01c7.44-5.63,16.54-9.56,24.77-12.48c25.91-9.21,55.21-12.33,81.95-12.33
	c26.73,0,56.03,3.12,81.95,12.33c8.23,2.92,17.31,6.86,24.77,12.48c1.38,1.04,4.86,3.95,6.68,6.46c0.65,0.89,8,9.01,14.21,9.01h0.23
	c7.41,0,13.46-0.86,13.46-10.81V337.66c0-1.66,0-3.31,0-4.97C788,307.66,755.7,291.42,741.51,284.8z"/>
</svg>
